<svg t="1733081279527" class="icon" viewBox="0 0 1024 1024" version="1.1" xmlns="http://www.w3.org/2000/svg" p-id="7482" width="200" height="200"><path d="M 634.061 483.328 c 58.1632 -37.0688 97.0752 -102.195 97.0752 -176.128 c 0 -115.098 -93.7984 -208.896 -208.896 -208.896 S 313.344 192.102 313.344 307.2 c 0 74.1376 38.912 139.059 97.0752 176.128 C 248.013 531.661 129.024 682.189 129.024 860.16 c 0 13.5168 11.0592 24.576 24.576 24.576 s 24.576 -11.0592 24.576 -24.576 c 0 -189.645 154.419 -344.064 344.064 -344.064 S 866.304 670.515 866.304 860.16 c 0 13.5168 11.0592 24.576 24.576 24.576 s 24.576 -11.0592 24.576 -24.576 c 0 -177.971 -118.989 -328.499 -281.395 -376.832 Z M 362.496 307.2 c 0 -88.064 71.68 -159.744 159.744 -159.744 s 159.744 71.68 159.744 159.744 s -71.68 159.744 -159.744 159.744 s -159.744 -71.68 -159.744 -159.744 Z" p-id="7483"></path></svg>